<svg xmlns="http://www.w3.org/2000/svg" version="1.1" xmlns:xlink="http://www.w3.org/1999/xlink" xmlns:svgjs="http://svgjs.dev/svgjs" width="1500" height="1500" viewBox="0 0 1500 1500"><rect width="1500" height="1500" fill="#14031c"></rect><g transform="matrix(0.6666666666666666,0,0,0.6666666666666666,249.39393939393938,435.99032258064517)"><svg viewBox="0 0 396 248" data-background-color="#14031c" preserveAspectRatio="xMidYMid meet" height="939" width="1500" xmlns="http://www.w3.org/2000/svg" xmlns:xlink="http://www.w3.org/1999/xlink"><g id="tight-bounds" transform="matrix(1,0,0,1,0.2400000000000091,0.4000000000000057)"><svg viewBox="0 0 395.52 247.2" height="247.2" width="395.52"><rect width="395.52" height="247.2" fill="url(#b8a9b1f9-1b93-4a37-a0d3-2986bdc7ebda)" mask="url(#76568adb-fb53-461e-93c8-3d713b4042bf)" data-fill-palette-color="tertiary"></rect><g><svg></svg></g><g><svg viewBox="0 0 395.52 247.2" height="247.2" width="395.52"><g transform="matrix(1,0,0,1,139.6896842105263,47.215199999999996)"><svg viewBox="0 0 116.14063157894735 152.7696" height="152.7696" width="116.14063157894735"><g><svg viewBox="0 0 116.14063157894735 152.7696" height="152.7696" width="116.14063157894735"><g><svg viewBox="0 0 116.14063157894735 152.7696" height="152.7696" width="116.14063157894735"><g><svg viewBox="0 0 116.14063157894735 152.7696" height="152.7696" width="116.14063157894735"><g id="textblocktransform"><svg viewBox="0 0 116.14063157894735 152.7696" height="152.7696" width="116.14063157894735" id="textblock"><g><svg viewBox="0 0 116.14063157894735 152.7696" height="152.7696" width="116.14063157894735"><g transform="matrix(1,0,0,1,0,0)"><svg width="116.14063157894735" viewBox="3.1 -34.2 26 34.2" height="152.7696" data-palette-color="url(#eb70e676-8ab6-417c-8ce7-4e700c031447)"></svg></g></svg></g></svg></g></svg></g></svg></g></svg></g></svg></g><path d="M73.529 41.215L73.529 0 320.729 0 320.729 247.2 73.529 247.2 73.529 205.985 87.306 205.985 87.306 233.423 306.952 233.423 306.952 13.777 87.306 13.777 87.306 41.215Z" fill="url(#b8a9b1f9-1b93-4a37-a0d3-2986bdc7ebda)" stroke="transparent" data-fill-palette-color="tertiary"></path></svg></g><defs></defs><mask id="0be33f35-41f3-4277-9845-18e4ac3016ac"><g id="SvgjsG2242"><svg viewBox="0 0 395.52 247.2" height="247.2" width="395.52"><g><svg></svg></g><g><svg viewBox="0 0 395.52 247.2" height="247.2" width="395.52"><g transform="matrix(1,0,0,1,139.6896842105263,47.215199999999996)"><svg viewBox="0 0 116.14063157894735 152.7696" height="152.7696" width="116.14063157894735"><g><svg viewBox="0 0 116.14063157894735 152.7696" height="152.7696" width="116.14063157894735"><g><svg viewBox="0 0 116.14063157894735 152.7696" height="152.7696" width="116.14063157894735"><g><svg viewBox="0 0 116.14063157894735 152.7696" height="152.7696" width="116.14063157894735"><g id="SvgjsG2241"><svg viewBox="0 0 116.14063157894735 152.7696" height="152.7696" width="116.14063157894735" id="SvgjsSvg2240"><g><svg viewBox="0 0 116.14063157894735 152.7696" height="152.7696" width="116.14063157894735"><g transform="matrix(1,0,0,1,0,0)"><svg width="116.14063157894735" viewBox="3.1 -34.2 26 34.2" height="152.7696" data-palette-color="url(#eb70e676-8ab6-417c-8ce7-4e700c031447)"><path d="M10.35 0L14.45-31.4 3.1-31.4 3.5-34.2 29.1-34.2 28.75-31.4 17.4-31.4 13.25 0 10.35 0Z" opacity="1" transform="matrix(1,0,0,1,0,0)" fill="white" class="wordmark-text-0" id="SvgjsPath2239"></path></svg></g></svg></g></svg></g></svg></g></svg></g></svg></g></svg></g><path d="M73.529 41.215L73.529 0 320.729 0 320.729 247.2 73.529 247.2 73.529 205.985 87.306 205.985 87.306 233.423 306.952 233.423 306.952 13.777 87.306 13.777 87.306 41.215Z" fill="black" stroke="transparent"></path></svg></g><defs><mask></mask></defs></svg><rect width="395.52" height="247.2" fill="black" stroke="none" visibility="hidden"></rect></g></mask><linearGradient x1="0.054" x2="0.941" y1="0.5" y2="0.5" id="eb70e676-8ab6-417c-8ce7-4e700c031447"><stop stop-color="#8c8c8c" offset="0"></stop><stop stop-color="#e3e4e5" offset="0.498"></stop><stop stop-color="#8c8c8c" offset="1"></stop></linearGradient><rect width="395.52" height="247.2" fill="url(#eb70e676-8ab6-417c-8ce7-4e700c031447)" mask="url(#0be33f35-41f3-4277-9845-18e4ac3016ac)" data-fill-palette-color="primary"></rect><mask id="76568adb-fb53-461e-93c8-3d713b4042bf"><g id="SvgjsG2249"><svg viewBox="0 0 395.52 247.2" height="247.2" width="395.52"><g><svg></svg></g><g><svg viewBox="0 0 395.52 247.2" height="247.2" width="395.52"><g transform="matrix(1,0,0,1,139.6896842105263,47.215199999999996)"><svg viewBox="0 0 116.14063157894735 152.7696" height="152.7696" width="116.14063157894735"><g><svg viewBox="0 0 116.14063157894735 152.7696" height="152.7696" width="116.14063157894735"><g><svg viewBox="0 0 116.14063157894735 152.7696" height="152.7696" width="116.14063157894735"><g><svg viewBox="0 0 116.14063157894735 152.7696" height="152.7696" width="116.14063157894735"><g id="SvgjsG2248"><svg viewBox="0 0 116.14063157894735 152.7696" height="152.7696" width="116.14063157894735" id="SvgjsSvg2247"><g><svg viewBox="0 0 116.14063157894735 152.7696" height="152.7696" width="116.14063157894735"><g transform="matrix(1,0,0,1,0,0)"><svg width="116.14063157894735" viewBox="3.1 -34.2 26 34.2" height="152.7696" data-palette-color="url(#eb70e676-8ab6-417c-8ce7-4e700c031447)"></svg></g></svg></g></svg></g></svg></g></svg></g></svg></g></svg></g><path d="M73.529 41.215L73.529 0 320.729 0 320.729 247.2 73.529 247.2 73.529 205.985 87.306 205.985 87.306 233.423 306.952 233.423 306.952 13.777 87.306 13.777 87.306 41.215Z" fill="white" stroke="transparent"></path></svg></g><defs><mask></mask></defs><mask><g id="SvgjsG2246"><svg viewBox="0 0 395.52 247.2" height="247.2" width="395.52"><g><svg></svg></g><g><svg viewBox="0 0 395.52 247.2" height="247.2" width="395.52"><g transform="matrix(1,0,0,1,139.6896842105263,47.215199999999996)"><svg viewBox="0 0 116.14063157894735 152.7696" height="152.7696" width="116.14063157894735"><g><svg viewBox="0 0 116.14063157894735 152.7696" height="152.7696" width="116.14063157894735"><g><svg viewBox="0 0 116.14063157894735 152.7696" height="152.7696" width="116.14063157894735"><g><svg viewBox="0 0 116.14063157894735 152.7696" height="152.7696" width="116.14063157894735"><g id="SvgjsG2245"><svg viewBox="0 0 116.14063157894735 152.7696" height="152.7696" width="116.14063157894735" id="SvgjsSvg2244"><g><svg viewBox="0 0 116.14063157894735 152.7696" height="152.7696" width="116.14063157894735"><g transform="matrix(1,0,0,1,0,0)"><svg width="116.14063157894735" viewBox="3.1 -34.2 26 34.2" height="152.7696" data-palette-color="url(#eb70e676-8ab6-417c-8ce7-4e700c031447)"><path d="M10.35 0L14.45-31.4 3.1-31.4 3.5-34.2 29.1-34.2 28.75-31.4 17.4-31.4 13.25 0 10.35 0Z" opacity="1" transform="matrix(1,0,0,1,0,0)" fill="black" class="wordmark-text-0" id="SvgjsPath2243"></path></svg></g></svg></g></svg></g></svg></g></svg></g></svg></g></svg></g><path d="M73.529 41.215L73.529 0 320.729 0 320.729 247.2 73.529 247.2 73.529 205.985 87.306 205.985 87.306 233.423 306.952 233.423 306.952 13.777 87.306 13.777 87.306 41.215Z" fill="black" stroke="transparent"></path></svg></g><defs><mask></mask></defs></svg><rect width="395.52" height="247.2" fill="black" stroke="none" visibility="hidden"></rect></g></mask></svg><rect width="395.52" height="247.2" fill="black" stroke="none" visibility="hidden"></rect></g></mask><linearGradient x1="0.054" x2="0.941" y1="0.5" y2="0.5" id="b8a9b1f9-1b93-4a37-a0d3-2986bdc7ebda"><stop stop-color="#8c8c8c" offset="0"></stop><stop stop-color="#e3e4e5" offset="0.498"></stop><stop stop-color="#8c8c8c" offset="1"></stop></linearGradient></svg><rect width="395.52" height="247.2" fill="none" stroke="none" visibility="hidden"></rect></g></svg></g></svg>